<svg width="22" height="28" viewBox="0 0 22 28" fill="none" xmlns="http://www.w3.org/2000/svg">
<path d="M21.6267 17.8133L20.8667 12.2666C20.24 7.63994 16.6667 4.05328 12.32 3.43994V2.01335C12.32 1.28001 11.72 0.680014 10.9867 0.680014C10.2534 0.680014 9.65336 1.28001 9.65336 2.01335V3.43994C5.30669 4.06661 1.76001 7.63994 1.12001 12.2666L0.360022 17.8133C0.160022 19.2533 0.586675 20.6933 1.53334 21.76C2.42668 22.7733 3.69336 23.3599 5.02669 23.3599H6.42669C6.72003 25.5866 8.61335 27.32 10.92 27.32C13.2267 27.32 15.12 25.5866 15.4133 23.3599H16.92C18.2534 23.3599 19.52 22.7733 20.4133 21.76C21.36 20.68 21.7867 19.24 21.5867 17.8133H21.6267ZM10.9467 24.6667C10.1067 24.6667 9.41334 24.12 9.16001 23.3733H12.7334C12.48 24.12 11.7867 24.6667 10.9467 24.6667ZM18.44 20.0133C18.0534 20.4533 17.52 20.7066 16.9467 20.7066H5.04001C4.46668 20.7066 3.94669 20.4667 3.54669 20.0133C3.12002 19.52 2.92001 18.84 3.01334 18.1733L3.77335 12.6266C4.28002 8.8533 7.38668 6 11 6C14.6133 6 17.7067 8.8533 18.2267 12.6266L18.9867 18.1733C19.08 18.84 18.88 19.52 18.4533 20.0133H18.44Z" fill="#009CB4"/>
</svg>
