<svg width="24" height="26" viewBox="0 0 24 26" fill="none" xmlns="http://www.w3.org/2000/svg">
<path d="M18.6667 3.33333V2C18.6667 1.26667 18.0667 0.666666 17.3333 0.666666C16.6 0.666666 16 1.26667 16 2V3.33333H8V2C8 1.26667 7.4 0.666666 6.66667 0.666666C5.93333 0.666666 5.33333 1.26667 5.33333 2V3.33333C2.38667 3.33333 0 5.72 0 8.66667V20.6667C0 23.6133 2.38667 26 5.33333 26H18.6667C21.6133 26 24 23.6133 24 20.6667V8.66667C24 5.72 21.6133 3.33333 18.6667 3.33333ZM21.3333 20.6667C21.3333 22.1333 20.1333 23.3333 18.6667 23.3333H5.33333C3.86667 23.3333 2.66667 22.1333 2.66667 20.6667V8.66667C2.66667 7.2 3.86667 6 5.33333 6V7.33333C5.33333 8.06667 5.93333 8.66667 6.66667 8.66667C7.4 8.66667 8 8.06667 8 7.33333V6H16V7.33333C16 8.06667 16.6 8.66667 17.3333 8.66667C18.0667 8.66667 18.6667 8.06667 18.6667 7.33333V6C20.1333 6 21.3333 7.2 21.3333 8.66667V20.6667Z" fill="#4D4D4F"/>
<path d="M8.94668 13.0667C8.45334 12.5733 7.54666 12.5733 7.05332 13.0667C6.93332 13.1867 6.84 13.3333 6.77334 13.4933C6.70667 13.6667 6.66667 13.84 6.66667 14.0133C6.66667 14.1866 6.70667 14.36 6.77334 14.52C6.84 14.68 6.93332 14.8267 7.05332 14.9467C7.30666 15.2 7.65333 15.3466 8 15.3466C8.17333 15.3466 8.34667 15.3067 8.50667 15.24C8.66667 15.1733 8.81334 15.08 8.94668 14.9467C9.06668 14.8267 9.16 14.68 9.22666 14.52C9.30666 14.36 9.33333 14.1866 9.33333 14.0133C9.33333 13.84 9.30666 13.6667 9.22666 13.4933C9.16 13.3333 9.06668 13.1867 8.94668 13.0667Z" fill="#4D4D4F"/>
<path d="M8.94668 17.0667C8.88001 17 8.81333 16.9467 8.74666 16.9067C8.66666 16.8533 8.58667 16.8133 8.50667 16.7733C8.42667 16.7467 8.34666 16.72 8.26666 16.7067C8.09333 16.6667 7.90666 16.6667 7.74666 16.7067C7.65333 16.7067 7.57333 16.7467 7.49333 16.7733C7.41333 16.8133 7.33333 16.8533 7.26666 16.9067C7.18666 16.9467 7.11999 17 7.05332 17.0667C6.93332 17.1867 6.84 17.3333 6.77334 17.4933C6.70667 17.6667 6.66667 17.8267 6.66667 18.0133C6.66667 18.3733 6.81332 18.7067 7.05332 18.9467C7.30666 19.2 7.65333 19.3466 8 19.3466C8.34667 19.3466 8.69334 19.2 8.94668 18.9467C9.20001 18.7067 9.33333 18.3733 9.33333 18.0133C9.33333 17.8267 9.29333 17.6667 9.22666 17.4933C9.16 17.3333 9.06668 17.1867 8.94668 17.0667Z" fill="#4D4D4F"/>
<path d="M12.9467 13.0667C12.88 13 12.8133 12.9466 12.7467 12.8933C12.6667 12.8533 12.5867 12.8133 12.5067 12.7733C12.4267 12.7467 12.3467 12.72 12.2667 12.7067C12 12.6533 11.7333 12.68 11.4933 12.7733C11.3333 12.84 11.1867 12.9467 11.0533 13.0667C10.9333 13.1867 10.84 13.3333 10.7733 13.4933C10.7067 13.6667 10.6667 13.84 10.6667 14.0133C10.6667 14.1866 10.7067 14.36 10.7733 14.52C10.84 14.68 10.9333 14.8267 11.0533 14.9467C11.1867 15.08 11.3333 15.1733 11.4933 15.24C11.6533 15.3067 11.8267 15.3466 12 15.3466C12.1733 15.3466 12.3467 15.3067 12.5067 15.24C12.6667 15.1733 12.8133 15.08 12.9467 14.9467C13.0667 14.8267 13.16 14.68 13.2267 14.52C13.3067 14.36 13.3333 14.1866 13.3333 14.0133C13.3333 13.84 13.3067 13.6667 13.2267 13.4933C13.16 13.3333 13.0667 13.1867 12.9467 13.0667Z" fill="#4D4D4F"/>
<path d="M12.9467 17.0666C12.8267 16.9466 12.68 16.84 12.5067 16.7733C12.1867 16.64 11.8133 16.64 11.4933 16.7733C11.3333 16.84 11.1867 16.9466 11.0533 17.0666C10.9333 17.1866 10.84 17.3333 10.7733 17.4933C10.7067 17.6666 10.6667 17.8266 10.6667 18.0133C10.6667 18.1866 10.7067 18.36 10.7733 18.52C10.84 18.68 10.9333 18.8266 11.0533 18.9466C11.1867 19.08 11.3333 19.1733 11.4933 19.24C11.6533 19.3066 11.8267 19.3466 12 19.3466C12.36 19.3466 12.6933 19.2 12.9467 18.9466C13.0667 18.8266 13.16 18.68 13.24 18.52C13.3067 18.36 13.3333 18.1866 13.3333 18.0133C13.3333 17.84 13.3067 17.6666 13.2267 17.4933C13.16 17.3333 13.0667 17.1866 12.9467 17.0666Z" fill="#4D4D4F"/>
<path d="M16.9467 13.0666C16.8267 12.9466 16.68 12.84 16.5067 12.7733C16.0133 12.5733 15.4267 12.6933 15.0533 13.0666C14.9333 13.1866 14.84 13.3333 14.7733 13.4933C14.7067 13.6666 14.6667 13.84 14.6667 14.0133C14.6667 14.1866 14.7067 14.36 14.7733 14.52C14.84 14.68 14.9333 14.8266 15.0533 14.9466C15.1867 15.08 15.3333 15.1733 15.4933 15.24C15.6533 15.3066 15.8267 15.3466 16 15.3466C16.1733 15.3466 16.3467 15.3066 16.5067 15.24C16.6667 15.1733 16.8133 15.08 16.9467 14.9466C17.0667 14.8266 17.16 14.68 17.2267 14.52C17.3067 14.36 17.3333 14.1866 17.3333 14.0133C17.3333 13.84 17.3067 13.6666 17.2267 13.4933C17.16 13.3333 17.0667 13.1866 16.9467 13.0666Z" fill="#4D4D4F"/>
<path d="M16.9467 17.0667C16.88 17 16.8133 16.9467 16.7467 16.9067C16.6667 16.8533 16.5867 16.8133 16.5067 16.7733C16.4267 16.7467 16.3467 16.72 16.2667 16.7067C16.0933 16.6667 15.9067 16.6667 15.7467 16.7067C15.6533 16.7067 15.5733 16.7467 15.4933 16.7733C15.4133 16.8133 15.3333 16.8533 15.2667 16.9067C15.1867 16.9467 15.12 17 15.0533 17.0667C14.9333 17.1867 14.84 17.3333 14.7733 17.4933C14.7067 17.6667 14.6667 17.8267 14.6667 18.0133C14.6667 18.3733 14.8133 18.7067 15.0533 18.9467C15.3067 19.2 15.6533 19.3466 16 19.3466C16.3467 19.3466 16.6933 19.2 16.9467 18.9467C17.2 18.7067 17.3333 18.3733 17.3333 18.0133C17.3333 17.8267 17.2933 17.6667 17.2267 17.4933C17.16 17.3333 17.0667 17.1867 16.9467 17.0667Z" fill="#4D4D4F"/>
</svg>
