<svg width="6" height="22" viewBox="0 0 6 22" fill="none" xmlns="http://www.w3.org/2000/svg">
<path d="M2.99955 8.86666C1.82622 8.86666 0.866211 9.82667 0.866211 11C0.866211 12.1733 1.82622 13.1333 2.99955 13.1333C4.17289 13.1333 5.13289 12.1733 5.13289 11C5.13289 9.82667 4.17289 8.86666 2.99955 8.86666Z" fill="#676A71"/>
<path d="M2.99955 17.4C1.82622 17.4 0.866211 18.36 0.866211 19.5333C0.866211 20.7067 1.82622 21.6667 2.99955 21.6667C4.17289 21.6667 5.13289 20.7067 5.13289 19.5333C5.13289 18.36 4.17289 17.4 2.99955 17.4Z" fill="#676A71"/>
<path d="M2.99955 4.59998C4.17289 4.59998 5.13289 3.63997 5.13289 2.46663C5.13289 1.2933 4.17289 0.333334 2.99955 0.333334C1.82622 0.333334 0.866211 1.2933 0.866211 2.46663C0.866211 3.63997 1.82622 4.59998 2.99955 4.59998Z" fill="#676A71"/>
</svg>
