<svg width="28" height="25" viewBox="0 0 28 25" fill="none" xmlns="http://www.w3.org/2000/svg">
<path d="M0.652954 4.63997C0.639621 3.39997 1.10632 2.2266 1.97298 1.3466C2.82632 0.479932 3.95963 0.0132656 5.15963 0.0132656H22.973C24.1063 0.0132656 25.1596 0.439991 25.9596 1.23999C26.8263 2.10666 27.3196 3.35999 27.3063 4.65332C27.3063 5.97332 26.7196 7.2266 25.733 8.09326L18.8663 14.2C18.5996 14.44 18.3063 15.1333 18.3063 15.7466V20.04C18.3063 20.9334 17.8263 21.7732 17.053 22.2399L16.853 22.3467L13.3596 23.7199C12.9863 23.9199 12.573 24.0267 12.1596 24.0267C11.733 24.0267 11.3063 23.92 10.9063 23.6934C10.093 23.24 9.59965 22.3733 9.59965 21.4399V15.4933C9.59965 15.1867 9.29295 14.5733 8.81295 14.1466L2.13298 7.97331C1.19964 7.13331 0.652982 5.91997 0.639648 4.63997H0.652954ZM15.6796 19.9333L15.6396 15.7332C15.6396 14.5999 16.0929 13.0667 17.1063 12.1867L23.973 6.08C24.3996 5.70666 24.6396 5.18663 24.6396 4.62663C24.6396 4.03996 24.4263 3.47994 24.0663 3.10661C23.853 2.89328 23.5063 2.65332 22.973 2.65332H5.17297C4.67964 2.66665 4.21296 2.86663 3.86629 3.2133C3.50629 3.58663 3.30629 4.06659 3.31962 4.58659V4.62663C3.31962 5.14663 3.55962 5.65333 3.94629 6L10.6263 12.1733C11.3863 12.8667 12.293 14.1467 12.293 15.4933V21.4399" fill="#676A71"/>
</svg>
