<svg width="18" height="22" viewBox="0 0 18 22" fill="none" xmlns="http://www.w3.org/2000/svg">
<path d="M7.79986 21.48C7.98652 21.6666 8.21319 21.7866 8.45319 21.8666C8.62653 21.9466 8.81319 22 9.01319 22C9.21319 22 9.39986 21.9466 9.55986 21.8666C9.79986 21.7866 10.0265 21.6666 10.2132 21.48L17.2132 14.4666C17.7332 13.9466 17.7332 13.1066 17.2132 12.5866C16.6932 12.0666 15.8532 12.0666 15.3332 12.5866L10.3599 17.5866V2.01333C10.3599 1.27999 9.77319 0.679993 9.02652 0.679993C8.27985 0.679993 7.69319 1.27999 7.69319 2.01333V17.5866L2.70652 12.5999C2.18652 12.0799 1.34652 12.0799 0.826523 12.5999C0.306523 13.1199 0.306523 13.96 0.826523 14.48L7.82652 21.4933L7.79986 21.48Z" fill="#676A71"/>
</svg>
