<svg width="24" height="24" viewBox="0 0 24 24" fill="none" xmlns="http://www.w3.org/2000/svg">
<path d="M23.4132 21.4667L19.5465 17.6C20.9998 15.7333 21.7865 13.4533 21.7865 11.0533C21.7865 8.18667 20.6665 5.49334 18.6398 3.46667C14.4665 -0.719997 7.65318 -0.719997 3.47984 3.46667C-0.706823 7.65334 -0.706823 14.4533 3.47984 18.6267C5.50651 20.6533 8.19984 21.7733 11.0665 21.7733C13.4932 21.7733 15.7998 20.96 17.6665 19.4933L21.5332 23.36C21.7998 23.6267 22.1332 23.7467 22.4798 23.7467C22.8265 23.7467 23.1598 23.6133 23.4265 23.36C23.9465 22.84 23.9465 22 23.4265 21.48L23.4132 21.4667ZM5.35984 16.7467C2.21318 13.6 2.21318 8.49333 5.35984 5.36C6.93318 3.78667 8.99984 3 11.0532 3C13.1065 3 15.1732 3.78667 16.7465 5.36C18.3198 6.93333 19.1065 8.90667 19.1065 11.0533C19.1065 13.2 18.2665 15.2267 16.7465 16.7467C15.2265 18.2667 13.1998 19.1067 11.0532 19.1067C8.90651 19.1067 6.87984 18.2667 5.35984 16.7467Z" fill="#676A71"/>
</svg>
